<?xml version="1.0" standalone="no"?>
<!DOCTYPE svg PUBLIC "-//W3C//DTD SVG 20010904//EN" "http://www.w3.org/TR/2001/REC-SVG-20010904/DTD/svg10.dtd">
<svg version="1.0" xmlns="http://www.w3.org/2000/svg"
    width="512.000000pt" height="512.000000pt" viewBox="0 0 512.000000 512.000000"
    preserveAspectRatio="xMidYMid meet">

    <g transform="translate(0.000000,512.000000) scale(0.100000,-0.100000)"
        fill="#ffffff" stroke="none">
        <path
            d="M2790 4418 c0 -7 -10 -32 -22 -55 -24 -46 -62 -67 -138 -79 -22 -4
-38 -10 -35 -14 5 -7 78 -22 120 -24 11 -1 20 -5 20 -11 1 -5 11 -26 23 -45
12 -19 22 -41 22 -47 0 -7 7 -13 15 -13 8 0 15 7 15 15 0 18 96 115 115 115
35 0 20 22 -32 46 -66 31 -70 35 -78 86 -6 35 -25 54 -25 26z" />
        <path
            d="M2975 4270 c-3 -5 3 -10 14 -10 11 0 23 5 26 10 3 6 -3 10 -14 10
-11 0 -23 -4 -26 -10z" />
        <path d="M2340 4104 c0 -8 5 -12 10 -9 6 3 10 10 10 16 0 5 -4 9 -10 9 -5 0
-10 -7 -10 -16z" />
        <path d="M2794 4089 c-3 -6 -1 -16 5 -22 8 -8 11 -5 11 11 0 24 -5 28 -16 11z" />
        <path
            d="M2347 4046 c-9 -9 -21 -36 -27 -59 -32 -127 -57 -157 -149 -183 -83
-23 -112 -36 -108 -47 4 -12 44 -25 99 -31 39 -4 46 -9 107 -66 33 -31 39 -44
50 -107 7 -40 16 -73 21 -73 14 0 37 44 54 104 22 75 57 110 132 132 60 17
104 40 104 54 0 8 -76 29 -124 34 -23 3 -59 34 -103 90 -7 8 -13 25 -13 38 -1
13 -7 47 -13 77 -12 50 -14 53 -30 37z" />
        <path
            d="M864 3978 c-2 -3 -19 -10 -37 -13 -78 -17 -172 -105 -198 -185 -6
-19 -13 -42 -16 -50 -2 -8 -5 -518 -6 -1132 l-2 -1117 -27 -28 c-16 -16 -28
-36 -28 -45 0 -18 -153 -293 -179 -323 -10 -11 -32 -47 -48 -80 -17 -33 -47
-92 -67 -131 -37 -73 -44 -108 -26 -119 15 -9 4581 -8 4603 0 22 9 42 45 30
54 -16 11 -53 82 -53 101 0 10 -6 23 -13 27 -21 13 -47 55 -58 96 -5 20 -14
37 -19 37 -11 0 -50 73 -50 93 0 7 -14 29 -30 47 -17 19 -34 49 -39 67 -5 18
-21 47 -35 64 -14 16 -30 47 -36 68 -7 28 -17 41 -34 45 l-24 6 0 1103 c0
1025 -4 1237 -21 1237 -4 0 -19 25 -35 55 -23 45 -35 58 -74 75 -25 12 -54 28
-63 36 -15 14 -96 15 -659 16 -353 0 -646 -4 -650 -9 -5 -4 -10 -32 -12 -61
l-3 -52 70 -1 c39 0 332 -1 653 -2 l582 -2 24 -27 c13 -16 28 -28 34 -28 29 0
31 -86 29 -1180 l-2 -1115 -1805 0 -1805 0 -2 1122 c-1 1264 -7 1167 76 1210
41 21 51 21 479 22 240 0 470 0 510 0 l72 1 0 60 0 60 -82 1 c-632 4 -921 3
-924 -3z m3546 -2609 c0 -5 8 -17 18 -27 29 -29 62 -88 62 -110 0 -12 6 -25
14 -29 17 -10 42 -58 50 -99 l7 -32 -503 0 c-277 -1 -522 -1 -545 -2 -31 0
-43 -4 -43 -15 0 -8 -7 -32 -15 -53 -30 -75 29 -70 -918 -70 l-849 0 -21 24
c-11 13 -26 24 -33 24 -11 0 -30 37 -36 73 -3 18 -27 19 -530 20 -289 1 -530
5 -534 9 -4 4 1 29 11 55 20 54 113 224 129 235 15 10 3736 8 3736 -3z" />
        <path d="M1998 3763 c7 -3 16 -2 19 1 4 3 -2 6 -13 5 -11 0 -14 -3 -6 -6z" />
        <path
            d="M2665 3760 c-4 -6 5 -10 19 -10 14 0 26 5 26 10 0 6 -9 10 -19 10
-11 0 -23 -4 -26 -10z" />
        <path d="M2345 3440 c-3 -5 -1 -18 4 -27 9 -16 10 -14 11 10 0 28 -5 34 -15
17z" />
        <path
            d="M2705 3302 c-16 -11 -38 -28 -47 -39 -20 -22 -52 -107 -38 -98 15 10
12 -5 -10 -40 -25 -40 -91 -245 -83 -258 3 -5 -6 -30 -20 -55 -25 -48 -79
-210 -81 -247 -1 -11 -8 -33 -17 -50 -23 -41 -80 -226 -73 -236 2 -5 -5 -28
-17 -51 -43 -85 -79 -208 -73 -250 8 -48 32 -62 91 -55 73 8 115 58 154 181
18 56 32 109 31 119 0 10 8 33 18 52 23 40 81 226 74 236 -3 5 6 30 19 56 30
58 79 209 79 242 0 13 8 38 18 55 25 43 83 223 76 235 -3 5 7 38 24 73 16 34
30 73 30 85 0 26 -25 53 -49 53 -10 0 -31 2 -47 5 -19 4 -39 -1 -59 -13z" />
        <path
            d="M2015 3084 c-28 -15 -63 -39 -80 -54 -48 -43 -126 -87 -110 -61 9 15
-337 -188 -365 -213 -14 -13 -44 -35 -66 -49 -46 -28 -79 -69 -89 -109 -8 -30
36 -88 65 -88 11 0 23 -6 27 -14 11 -18 87 -56 113 -56 11 0 20 -4 20 -10 0
-13 96 -61 105 -52 3 4 12 0 18 -8 18 -24 89 -63 117 -64 14 0 24 -5 23 -11
-3 -14 77 -54 110 -55 15 0 27 -6 27 -13 0 -15 87 -60 100 -52 14 9 40 -6 33
-19 -4 -6 4 -4 17 5 20 13 25 25 25 60 1 61 -28 129 -54 129 -12 0 -21 7 -21
15 0 15 -80 55 -111 55 -10 0 -22 6 -26 14 -12 20 -92 58 -105 50 -6 -4 -16 0
-22 8 -15 21 -91 58 -118 58 -15 0 -27 9 -35 27 -28 58 -20 68 112 138 50 26
101 58 115 70 24 21 96 65 106 65 3 0 2 -5 -2 -11 -8 -14 52 17 94 48 44 33
63 74 65 140 2 46 -1 58 -18 69 -18 12 -27 10 -70 -12z" />
        <path
            d="M3000 3093 c-20 -14 -22 -22 -18 -71 4 -39 10 -59 24 -69 10 -8 19
-21 19 -31 0 -20 70 -69 99 -68 11 1 20 -4 19 -10 -2 -11 75 -50 112 -57 11
-2 19 -8 18 -14 -2 -10 76 -49 112 -56 11 -2 19 -8 18 -13 -1 -5 23 -23 53
-39 31 -17 54 -36 54 -45 0 -30 -90 -100 -125 -98 -11 1 -81 -28 -155 -64
-112 -54 -145 -75 -192 -124 -52 -52 -58 -63 -58 -99 0 -23 6 -49 13 -59 12
-17 16 -17 52 -2 21 9 40 14 43 12 7 -8 296 140 312 159 13 15 81 55 95 55 3
0 3 -5 -1 -12 -11 -18 228 111 260 141 15 14 32 37 37 50 13 32 -5 77 -33 84
-11 3 -18 12 -16 19 6 16 -73 68 -102 68 -11 0 -20 4 -20 10 0 14 -76 60 -100
60 -11 0 -23 7 -27 15 -7 20 -82 60 -105 56 -10 -1 -18 4 -18 12 0 16 -90 67
-107 60 -7 -3 -16 3 -19 11 -8 21 -85 66 -112 66 -12 0 -22 6 -22 13 0 13 -26
32 -64 47 -17 6 -30 4 -46 -7z" />
    </g>
</svg>